<svg width="32" height="32" fill="none" xmlns="http://www.w3.org/2000/svg"><path d="M21.126 20.347a5.665 5.665 0 0 0-4.188-3.2V.938a.937.937 0 1 0-1.875 0v16.21a5.665 5.665 0 0 0-4.189 3.2l-4.762 10.32a.937.937 0 0 0 .85 1.33h2.274a4.545 4.545 0 0 0 3.25-1.352c1.462 1.483 3.25 1.352 3.524 1.352.264 0 2.045.129 3.505-1.352a4.545 4.545 0 0 0 3.25 1.352h2.273a.938.938 0 0 0 .851-1.33l-4.763-10.32zm-8.55.786a3.782 3.782 0 0 1 3.381-2.19l.043.003.044-.002a3.782 3.782 0 0 1 3.38 2.19l.441.955h-7.73l.442-.956zm10.189 8.989a2.681 2.681 0 0 1-2.412-1.49.938.938 0 0 0-1.677 0c-.782 1.563-2.317 1.49-2.684 1.49-.44 0-1.912.02-2.668-1.49a.937.937 0 0 0-1.677 0 2.681 2.681 0 0 1-2.41 1.49h-.809l2.842-6.158h9.46l2.843 6.158h-.808zM31.34 3.556A4.643 4.643 0 0 1 28.446.665.938.938 0 0 0 26.653.66a4.643 4.643 0 0 1-2.892 2.895.938.938 0 0 0-.004 1.793 4.643 4.643 0 0 1 2.894 2.891.938.938 0 0 0 1.793.005 4.643 4.643 0 0 1 2.892-2.895.938.938 0 0 0 .004-1.793zm-3.791 2.38a6.56 6.56 0 0 0-1.484-1.484A6.56 6.56 0 0 0 27.55 2.97a6.56 6.56 0 0 0 1.483 1.483 6.559 6.559 0 0 0-1.483 1.484zM4.954 3.381h.569v.569a.938.938 0 0 0 1.875 0v-.569h.569a.938.938 0 0 0 0-1.875h-.57V.937a.938.938 0 0 0-1.874 0v.57h-.569a.938.938 0 0 0 0 1.874zM27.046 16.569h-.569V16a.938.938 0 0 0-1.875 0v.569h-.569a.938.938 0 0 0 0 1.875h.569v.569a.937.937 0 1 0 1.875 0v-.57h.569a.938.938 0 0 0 0-1.874zM8.24 16.395a.938.938 0 0 0 .004-1.793 4.643 4.643 0 0 1-2.895-2.892.938.938 0 0 0-1.793-.004 4.643 4.643 0 0 1-2.892 2.895.938.938 0 0 0-.004 1.793 4.643 4.643 0 0 1 2.895 2.891.938.938 0 0 0 1.793.005 4.643 4.643 0 0 1 2.891-2.895zm-3.788.587a6.56 6.56 0 0 0-1.484-1.484 6.561 6.561 0 0 0 1.484-1.483c.411.57.913 1.072 1.483 1.483a6.562 6.562 0 0 0-1.483 1.484z" fill="#204479"/></svg>