<svg width="32" height="32" fill="none" xmlns="http://www.w3.org/2000/svg"><g clip-path="url(#clip0)" fill="#204479"><path d="M15.476 15.199L16 14.5l.524.699a3.422 3.422 0 0 0 2.185 1.328l2.762.46a.938.938 0 0 0 .308-1.85l-2.762-.46a1.556 1.556 0 0 1-.993-.603l-1.274-1.699a.938.938 0 0 0-1.5 0l-1.274 1.699a1.556 1.556 0 0 1-.993.603l-2.762.46a.938.938 0 0 0 .308 1.85l2.762-.46a3.423 3.423 0 0 0 2.185-1.328z"/><path d="M28.483 24.346a4.3 4.3 0 0 0-3.583-.895l-1.861.373-1.101-1.778V20.75h.937a3.441 3.441 0 0 0 3.438-3.438c0-3.969-2.756-7.306-6.454-8.2a5.355 5.355 0 0 0 1.516-3.737A5.381 5.381 0 0 0 16 0a5.381 5.381 0 0 0-5.375 5.375c0 1.45.579 2.768 1.516 3.736-3.698.895-6.453 4.232-6.453 8.201a3.441 3.441 0 0 0 3.437 3.438h.938v1.296L8.96 23.824l-1.86-.373a4.304 4.304 0 0 0-3.556.873 4.303 4.303 0 0 0-1.607 3.288 4.254 4.254 0 0 0 1.24 3.072A4.423 4.423 0 0 0 6.31 32h19.436a4.321 4.321 0 0 0 4.317-4.316 4.3 4.3 0 0 0-1.58-3.338zM16 1.875c1.93 0 3.5 1.57 3.5 3.5s-1.57 3.5-3.5 3.5-3.5-1.57-3.5-3.5 1.57-3.5 3.5-3.5zM7.563 17.313a6.57 6.57 0 0 1 6.562-6.563h3.75a6.57 6.57 0 0 1 6.563 6.563c0 .861-.701 1.562-1.563 1.562H20.13a6.485 6.485 0 0 1-3.609-1.093.937.937 0 0 0-1.04 0 6.485 6.485 0 0 1-3.608 1.093H9.125c-.861 0-1.562-.7-1.562-1.563zm4.234 5.493a.938.938 0 0 0 .14-.494V20.75A8.348 8.348 0 0 0 16 19.663a8.348 8.348 0 0 0 4.063 1.086v1.564c0 .174.048.345.14.493l.873 1.41L16 25.231l-5.076-1.015.873-1.41zM4.514 29.37a2.393 2.393 0 0 1-.701-1.726 2.433 2.433 0 0 1 .909-1.86 2.434 2.434 0 0 1 2.01-.493l4.608.922a3.008 3.008 0 0 0-1.902 2.79c0 .397.078.776.219 1.123H6.31a2.536 2.536 0 0 1-1.796-.756zm21.232.756h-13.31a1.124 1.124 0 0 1-.22-2.225l13.052-2.61a2.431 2.431 0 0 1 2.026.506c.568.465.893 1.154.893 1.888a2.444 2.444 0 0 1-2.44 2.441z"/></g><defs><clipPath id="clip0"><path fill="#fff" d="M0 0h32v32H0z"/></clipPath></defs></svg>